# xmcd
#
# Track frame offsets:
#	150
#	23358
#	61405
#	86467
#	119558
#	151241
#	179885
#
# Disc length: 2822 seconds
#
# Revision: 2
# Processed by: cddbd v1.5.1PL2 Copyright (c) Steve Scherf et al.
# Submitted via: EasyCDDAExtractor 8.0.2.1
#
DISCID=530b0407
DTITLE=Dio - Hirsch Nurnberg 05-08-04 Disc 2
DYEAR=2004
DGENRE=Hard Rock
TTITLE0=Rock and Roll Children
TTITLE1=Gates Of Babylon
TTITLE2=Holy Diver
TTITLE3=Heaven and Hell
TTITLE4=The Last In Line
TTITLE5=Rainbow In The Dark
TTITLE6=We Rock
EXTD=
EXTT0=
EXTT1=
EXTT2=
EXTT3=
EXTT4=
EXTT5=
EXTT6=
PLAYORDER=
